<?xml version="1.0" encoding="UTF-8" standalone="no"?>
<!-- Created with Inkscape (http://www.inkscape.org/) -->

<!-- Author: Aishik Rehman -->

<!-- Author Profile: https://aishikrehman.com -->

<svg
   width="1683.7836mm"
   height="1635.8511mm"
   viewBox="0 0 1683.7836 1635.8511"
   version="1.1"
   id="svg5"
   inkscape:version="1.1.2 (b8e25be833, 2022-02-05)"
   sodipodi:docname="Green University of Bangladesh Logo.svg"
   xmlns:inkscape="http://www.inkscape.org/namespaces/inkscape"
   xmlns:sodipodi="http://sodipodi.sourceforge.net/DTD/sodipodi-0.dtd"
   xmlns:xlink="http://www.w3.org/1999/xlink"
   xmlns="http://www.w3.org/2000/svg"
   xmlns:svg="http://www.w3.org/2000/svg">
  <sodipodi:namedview
     id="namedview7"
     pagecolor="#ffffff"
     bordercolor="#666666"
     borderopacity="1.0"
     inkscape:pageshadow="2"
     inkscape:pageopacity="0.0"
     inkscape:pagecheckerboard="0"
     inkscape:document-units="mm"
     showgrid="false"
     inkscape:snap-global="true"
     inkscape:zoom="0.088388348"
     inkscape:cx="3891.9157"
     inkscape:cy="4853.5809"
     inkscape:window-width="1920"
     inkscape:window-height="1009"
     inkscape:window-x="-8"
     inkscape:window-y="-8"
     inkscape:window-maximized="1"
     inkscape:current-layer="g130214" />
  <defs
     id="defs2">
    <linearGradient
       inkscape:collect="always"
       id="linearGradient133603">
      <stop
         style="stop-color:#fee42b;stop-opacity:1"
         offset="0"
         id="stop133599" />
      <stop
         style="stop-color:#f47e2e;stop-opacity:1"
         offset="1"
         id="stop133601" />
    </linearGradient>
    <linearGradient
       id="linearGradient34997">
      <stop
         style="stop-color:#fff12b;stop-opacity:1"
         offset="0"
         id="stop34993" />
      <stop
         style="stop-color:#f3722e;stop-opacity:1"
         offset="1"
         id="stop34995" />
    </linearGradient>
    <linearGradient
       id="linearGradient19427">
      <stop
         style="stop-color:#eae434;stop-opacity:1"
         offset="0"
         id="stop19423" />
      <stop
         style="stop-color:#04964c;stop-opacity:1"
         offset="1"
         id="stop19425" />
    </linearGradient>
    <linearGradient
       id="linearGradient16245">
      <stop
         style="stop-color:#efe832;stop-opacity:1"
         offset="0"
         id="stop16241" />
      <stop
         style="stop-color:#06964b;stop-opacity:1"
         offset="1"
         id="stop16243" />
    </linearGradient>
    <linearGradient
       xlink:href="#linearGradient16245"
       id="linearGradient16247"
       x1="-258.37302"
       y1="157.83864"
       x2="-201.37692"
       y2="157.83864"
       gradientUnits="userSpaceOnUse"
       gradientTransform="translate(473.76151,-16.970563)" />
    <linearGradient
       xlink:href="#linearGradient19427"
       id="linearGradient19429"
       x1="-229.89062"
       y1="241.64062"
       x2="-229.89062"
       y2="245.49608"
       gradientUnits="userSpaceOnUse"
       gradientTransform="translate(473.77744,-18.965803)" />
    <linearGradient
       xlink:href="#linearGradient34997"
       id="linearGradient34999"
       x1="-250.53125"
       y1="296.20312"
       x2="-209.2207"
       y2="296.20312"
       gradientUnits="userSpaceOnUse"
       gradientTransform="translate(473.76252,-24.763663)" />
    <linearGradient
       xlink:href="#linearGradient34997"
       id="linearGradient47768"
       x1="-662.97656"
       y1="-50.776466"
       x2="-662.97656"
       y2="10.82812"
       gradientUnits="userSpaceOnUse"
       gradientTransform="translate(885.48115,30.581284)" />
    <clipPath
       clipPathUnits="userSpaceOnUse"
       id="clipPath36102">
      <path
         d="M 36,10.8 H 577.44 V 383.76 H 36 Z"
         id="path36100" />
    </clipPath>
    <linearGradient
       inkscape:collect="always"
       xlink:href="#linearGradient133603"
       id="linearGradient47189"
       x1="-59.814419"
       y1="458.1907"
       x2="-77.538689"
       y2="478.48254"
       gradientUnits="userSpaceOnUse"
       gradientTransform="translate(92.325243,117.07722)" />
    <linearGradient
       inkscape:collect="always"
       xlink:href="#linearGradient133603"
       id="linearGradient130053"
       gradientUnits="userSpaceOnUse"
       gradientTransform="matrix(-1,0,0,1,1.8083074,117.07722)"
       x1="-59.814419"
       y1="458.1907"
       x2="-77.538689"
       y2="478.48254" />
  </defs>
  <g
     inkscape:label="Layer 1"
     inkscape:groupmode="layer"
     id="layer1"
     transform="translate(839.14102,365.49285)">
    <g
       id="g36096"
       transform="matrix(0.35277777,0,0,-0.35277777,-617.1199,-239.45979)">
      <g
         id="g36098"
         clip-path="url(#clipPath36102)" />
    </g>
    <g
       id="g130214"
       transform="matrix(12.292591,0,0,12.292591,-575.8425,-6549.9561)"
       style="opacity:1">
      <path
         style="opacity:0.921114;fill:url(#linearGradient47189);fill-opacity:1;stroke-width:0.301267"
         d="m 22.422563,594.9541 c -0.10208,-1.15522 -0.84231,-1.74333 -1.9286,-1.74333 -1.1934,0 -1.55844,0.64297 -0.57865,1.192 l 1.49315,0.8367 c 0.76366,0.41892 1.02852,0.54336 1.0141,-0.28537 z M 9.222623,578.43854 c 1.24433,-0.67944 1.25951,-1.64625 0.0376,-2.39126 -1.6700415,-1.01819 -3.0162305,-0.66837 -2.0903935,1.26217 0.797466,1.66287 1.241203,1.57221 2.0528135,1.12909 z m 3.98042,-1.62005 c -0.13117,0.0503 -0.4687,0.5468 -0.66094,0.68552 -0.10868,0.0784 -0.0705,-0.72431 -0.15054,-0.80434 -0.41921,-0.41916 -1.2684,0.75051 -1.2684,1.79403 0,0.61298 0.0451,0.81628 0.85915,1.00756 1.28794,1.36172 1.97754,0.9787 1.98503,-1.25853 0.005,-1.38515 -0.5035,-1.5242 -0.7643,-1.42424 z m 3.49564,4.00654 c 0.17755,0.94644 0.91504,2.2326 2.61065,4.55288 0.30272,0.41426 1.08422,1.51273 1.73667,2.44108 0.65246,0.92834 1.57567,1.84919 2.05159,2.04634 0.47593,0.19715 1.0956,0.74825 1.37705,1.2247 0.89278,1.51135 2.23249,2.42214 3.56281,2.42214 0.839879,0 1.521359,0.24354 2.261789,0.8083 1.08457,0.82725 2.36559,3.29316 2.81375,4.33607 0.40808,0.94963 1.01958,1.52938 2.56361,2.22759 3.33079,1.50618 10.38113,3.52781 10.38113,3.52781 0,0 0.95074,0.77023 0.74446,1.41132 -0.62822,1.10237 -2.05481,0.81077 -3.44327,0.36315 -2.79863,-0.77916 -7.18623,-2.42776 -11.19843,-4.20763 -2.99664,-1.32937 -3.727649,-1.53755 -5.399039,-1.53755 -1.87882,0 -1.98584,-0.0433 -3.81009,-1.53716 -1.86725,-1.52923 -1.87366,-1.53986 -1.23794,-2.05462 l 0.63903,-0.51749 c -0.44297,-0.31778 -0.7754,-0.65411 -1.34143,-0.94605 -0.32756,-0.16895 -1.46562,-0.54999 -1.46562,-0.54999 -1.60033,-0.60054 -2.65986,-0.59166 -2.39688,-1.9115 0.2033,-1.02038 -1.04537,-1.97645 -2.70713,-2.42391 -1.02544,-0.27613 -1.15918,-0.43847 -1.5521,-1.88395 -0.32583,-1.19872 -0.55446,-1.56055 -0.94401,-1.49406 -0.28273,0.0482 -0.80245,-0.0667 -1.15493,-0.25524 -0.56202,-0.30079 -0.61767,-0.51786 -0.45234,-1.7642 0.15866,-1.19604 0.0897,-1.51358 -0.43512,-2.00428 -2.3616455,-2.20792 -2.6036285,-3.36013 -3.1989265,-5.90003 -0.238191,-1.01627 -1.090235,-1.15282 -1.380204,-1.25568 -0.684603,-0.24276 -0.666239,-0.68725 0.06684,-1.61926 0.553989,-0.70428 0.563254,-0.73028 0.137367,-1.7559 -0.251201,-0.60495 -0.864104,-1.53923 -1.271051,-2.15706 -0.956374,-1.45192 -0.949172,-1.74832 0.158078,-1.96976 1.112877,-0.22258 2.019459,-1.41712 0.387763,-3.20388 -2.308043,-2.52738 -1.981259,-3.47028 -0.882208,-3.81912 0.692985,-0.21994 0.730414,-0.99356 0.118841,-2.45724 -0.615873,-1.47401 -0.340095,-1.60542 0.882412,-0.42056 0.982425,0.95221 1.027543,0.96512 1.223005,0.34924 0.229339,-0.72258 -0.0524,-2.29629 -0.555253,-3.1015 -0.408671,-0.65439 -1.602375,-0.47524 -1.494002,0.17758 0.133758,0.80573 -1.011317,1.76308 -1.096135,-0.0288 -0.0093,-0.46575 0.220837,-1.13517 0.503601,-1.61384 0.428975,-0.72619 0.455885,-1.03325 0.162495,-1.8541 -0.965592,-2.70164 -0.599212,-5.35057 0.801532,-5.79514 0.356615,-0.11318 0.704235,-0.55006 0.802172,-1.00815 0.09508,-0.44462 0.289551,-1.07955 0.43221,-1.41093 0.246189,-0.57189 0.260422,-0.56757 0.279779,0.0847 0.04476,1.50853 1.497321,1.66545 1.853102,0.0456 0.26174,-1.4289 -0.364532,-3.02674 -1.314205,-1.5029 -0.558721,-0.88637 -0.696541,-1.53112 -0.740746,-2.06075 -0.08291,-0.99345 0.74063,-1.02787 1.657703,-1.09336 0.280178,-0.02 0.120438,-0.52182 0.190963,-0.75521 0.205109,0.0413 0.660577,0.52409 0.808387,0.52409 0.2955,0 0.53352,-0.73894 0.6432805,-1.08474 0.28183,-0.88797 -0.2378205,-2.18225 -0.9782595,-2.45128 -1.043228,-0.37904 -0.140444,-2.02365 1.8363295,-1.38198 0.30068,0.0976 0.54049,-0.83856 0.71588,-1.16996 0.1754,-0.33138 0.69171,-0.96919 1.14739,-1.41732 0.94629,-0.93067 1.13405,-2.62369 0.36205,-3.26441 -0.64272,-0.5334 -0.43295,-1.62401 0.33346,-1.73364 0.34111,-0.0487 0.98507,0.1983 1.43103,0.5491 0.66213,0.52084 0.81082,0.8824 0.81082,1.97164 0,0.73361 0.0768,1.33385 0.17045,1.33385 0.99331,0 2.23645,-1.78563 2.24432,-3.2237 0.002,-0.46386 0.14069,-1.04679 0.30699,-1.29533 0.26173,-0.39116 0.36238,-0.37327 0.74857,0.13288 0.76556,1.00344 0.53645,2.08988 -0.74857,3.54974 -0.6571,0.7465 -1.60782,1.52839 -2.1127,1.7375 -0.60556,0.25086 -0.96958,0.64925 -1.06958,1.1706 -0.4631,2.41423 -0.82406,3.58172 -1.31865,4.26499 -0.35914,0.49613 -0.59754,1.47099 -0.68126,2.7859 -0.0724,1.13804 0.0817,2.54733 -0.68193,3.53708 -0.55582,0.7204 -1.10224,1.21019 -1.22085,2.32862 v 2e-5 c -0.1186,1.11847 -0.43125,2.50808 -0.69479,3.08802 -0.32076,0.70586 -0.4893,2.00055 -0.5098,3.91649 -0.0168,1.57413 -0.1847905,3.13291 -0.3731905,3.46392 -0.27635,0.48563 -0.2211,0.79836 0.2860905,1.619 0.44794,0.72479 0.66473,1.67749 0.75425,3.31462 0.0691,1.26363 0.31879,2.80863 0.55489,3.43336 0.2361,0.62472 0.42984,1.84486 0.43053,2.71141 0.001,1.08122 0.23717,2.04057 0.75318,3.05766 0.41354,0.81514 0.75191,1.93494 0.75191,2.48842 0,0.65005 0.2217,1.19195 0.62626,1.53061 0.51952,0.4349 1.16555,0.87283 1.53625,1.98424 0.16456,0.49338 -0.38174,1.6283 0.29575,1.93697 1.92403,0.8766 1.67094,1.15803 1.91217,2.44393 z m -7.37636,-40.71708 c -0.7547305,0.91002 -0.7087105,1.29575 0.27103,2.47742 0.7519,0.90687 0.75303,2.01853 1.24256,0.74528 1.10044,-2.86227 -0.15589,-4.85978 -1.51359,-3.2227 z m -3.4738895,23.39796 c -0.82621,-0.82621 -1.717417,0.23756 -0.364376,1.84756 1.236777,1.47165 1.293642,-0.9183 0.364376,-1.84756 z m 28.1711585,38.16351 c 0,-0.15299 -0.32919,-0.66935 -0.73152,-1.1475 -0.40234,-0.47815 -1.0717,-1.63857 -1.48749,-2.57873 -0.73626,-1.66486 -1.97692,-3.22607 -2.56367,-3.22607 -0.587399,0 -0.689019,1.80631 -0.18671,3.31863 0.52761,1.58848 1.55321,2.60235 3.47637,3.43661 1.23307,0.53489 1.49302,0.56922 1.49302,0.19706 z m -2.94372,-2.04983 c -0.39821,-0.14206 -1.27405,-1.63148 -1.27405,-2.16665 0,-0.60068 0.83688,0.0276 1.3799,1.03583 0.57358,1.06509 0.54567,1.36325 -0.10589,1.13082 z m -3.289779,-0.30723 c 0,-0.58672 -0.75798,-2.24746 -1.20351,-2.5422 -0.6919,-0.45778 -2.17556,-0.2582 -2.49428,0.33731 -0.44391,0.82945 -0.40098,0.9236 0.42101,0.9236 0.49648,0 1.07668,0.21533 0.9444,0.67785 -0.27372,0.95707 0.64464,1.03457 1.71201,1.03596 0.54937,7.2e-4 0.62037,-0.12293 0.62037,-0.43252 z m -1.12569,-4.51992 c -0.23758,-1.01438 -1.84504,-2.55568 -2.52817,-2.42413 -0.27473,0.0529 -0.54618,0.33857 -0.60322,0.63479 -0.13709,0.71179 0.58636,2.30833 0.87837,1.83583 0.0697,-0.11278 0.19804,-0.43508 0.36989,-0.42634 0.19651,0.01 0.44534,0.37286 0.6497,0.59867 0.82733,0.91416 1.47201,0.79979 1.23343,-0.21882 z m -4.3903,-3.34864 c 0,-1.1415 -1.08662,-2.51127 -1.89743,-2.39187 -0.66671,0.0981 -1.21012,1.45223 -0.90349,2.2513 0.19962,0.52023 1.14137,0.95697 2.12305,0.98462 0.54969,0.0156 0.67787,-0.1441 0.67787,-0.84405 z m -3.90934,-0.62978 c -0.33659,-0.62894 -2.10991,-1.34511 -2.46107,-0.99396 -0.36722,0.36721 0.10509,0.88144 1.24883,1.35953 1.23783,0.5174 1.6227,0.40135 1.21224,-0.36557 z m 0.37122,-3.40267 c 0.17132,-1.76221 -0.0172,-2.02185 -1.47301,-2.02897 -1.05278,-0.004 -1.31728,0.47753 -1.09428,1.99692 0.0942,0.64179 0.37273,1.00853 0.93556,1.23174 1.35301,0.53664 1.47138,0.44958 1.63173,-1.19969 z m -3.7482,-0.0175 c 0.11237,-0.94768 -1.093,-2.31735 -2.03934,-2.31735 -0.95859,0 -0.7973,1.37163 0.28904,2.45796 1.04384,1.04383 1.61534,0.99794 1.7503,-0.14061 z m 1.26093,-4.36598 c 0,-1.88321 -0.33405,-2.47041 -1.40536,-2.47041 -0.8741,0 -1.36624,0.92562 -1.24817,2.34759 0.081,0.97501 0.22679,1.16271 1.14718,1.47659 0.57995,0.19778 1.15613,0.36724 1.2804,0.37658 0.12427,0.008 0.22595,-0.7693 0.22595,-1.73035 z m -4.10508,-0.002 c 0.3138,-1.09421 -0.0134,-1.64271 -1.41112,-2.3655 -1.61352,-0.83438 -1.7770205,0.57351 -0.29608,2.54968 0.8767,1.16989 1.33297,1.12064 1.7072,-0.18418 z m -1.02709,-7.87089 c 0.42487,-0.79403 0.39399,-2.83 -0.0497,-3.27364 -0.55107,-0.55107 -1.35563,-0.43342 -2.03689,0.29782 -0.7971615,0.85564 -0.7810495,1.98635 0.0408,2.86114 0.7984,0.84986 1.62738,0.89627 2.04576,0.11464 z m -3.8860985,-2.74182 c 0.743528,-0.75271 0.589033,-1.49287 -0.229602,-2.25554 -1.045567,-0.97424 -1.209751,-0.90841 -1.209751,0.55704 0,0.7125 0.06953,1.3339 0.30365,1.65697 0.442597,0.61075 0.756129,0.33311 1.135703,0.0415 z M 9.180263,569.2701 c 0.2401,-0.57475 0.43654,-1.59488 0.43654,-2.26712 0,-1.0476 -0.11506,-1.26593 -0.8053605,-1.52839 -1.248811,-0.4748 -1.793702,0.30847 -1.652528,2.37497 0.02735,0.40035 3.21e-4,1.00646 0.222417,0.9892 0.215908,-0.0168 0.903701,-0.98512 1.054171,-0.91114 0.16431,0.0808 -0.0726,0.8909 -0.14836,1.29976 -0.266481,1.42046 0.306,1.44777 0.8931205,0.0426 z m -0.4845405,-6.01424 c 0.19678,-0.23711 0.4370705,-1.19942 0.5339905,-2.13848 0.19516,-1.89082 -0.0372,-2.23802 -1.5033075,-2.24612 -0.622354,-0.002 -0.911012,0.19284 -1.129758,0.76818 -0.467809,1.23043 -0.35532,1.97896 0.324093,2.15663 0.378489,0.099 0.684902,0.49657 0.790831,1.02623 0.192355,0.96176 0.451158,1.07578 0.984151,0.43356 z m -0.581969,-7.77849 c 0.772549,-1.26706 0.771139,-2.76548 -0.0033,-3.53991 -0.78321,-0.78321 -1.032621,-0.75997 -1.630122,0.15192 -0.947552,1.44615 -0.950988,2.49873 -0.01141,3.47946 0.467733,0.4882 0.894849,0.88765 0.949123,0.88765 0.05432,0 0.367344,-0.44062 0.695687,-0.97912 z m -2.380209,-3.91799 c 0.718312,-0.61778 0.762913,-0.7849 0.514949,-1.92923 -0.436508,-2.01436 -1.838884,-2.01064 -2.217191,0.006 -0.180227,0.96072 0.250871,2.60396 0.682419,2.60119 0.128372,-7.8e-4 0.587297,-0.30585 1.019823,-0.67784 z m 3.096518,-2.26843 c 0.2385905,-0.46139 0.5207805,-1.30873 0.6270805,-1.88294 0.4298,-2.32172 -1.6762525,-2.86266 -2.7049825,-0.69478 -0.484699,1.02145 -0.487533,1.13724 -0.03586,1.4675 0.269703,0.19721 0.490363,0.62606 0.490363,0.95299 0,1.26366 1.001105,1.36063 1.623419,0.15723 z m 4.1080405,-13.64429 c 0.3153,-0.89464 0.27631,-1.45399 -0.74315,-1.69466 -0.46132,-0.10891 -0.78779,0.0252 -1.05528,0.74389 -0.27542,0.74003 -0.22056,0.37609 -0.28743,0.83675 -0.0177,0.12218 -0.20199,0.37849 -0.16622,0.41801 0.0897,0.0991 0.43839,-0.0897 0.51011,0.0314 0.1366,0.23071 0.23373,0.47609 0.22828,0.63947 0.11951,0.74931 0.20504,1.23635 0.36662,1.21267 0.31346,-0.0459 0.85413,-1.35631 1.14707,-2.18753 z"
         id="path37164"
         sodipodi:nodetypes="cssccsscsssssccssssssscccccsssscccsssssssccssssscsssssccssssssccsscsscssssssscsssssssscssssssssssssccsscsscsccssssccssccssssscsssssssssssssssssscssscsscscsscsccsccsssccscsscscssscscscssssscssssscsssscsssssssssssccsssscsc" />
      <path
         style="opacity:0.921114;fill:url(#linearGradient130053);fill-opacity:1;stroke-width:0.301267"
         d="m 71.710988,594.9541 c 0.10208,-1.15522 0.84231,-1.74333 1.9286,-1.74333 1.1934,0 1.55844,0.64297 0.57865,1.192 l -1.49315,0.8367 c -0.76366,0.41892 -1.02852,0.54336 -1.0141,-0.28537 z m 13.19994,-16.51556 c -1.24433,-0.67944 -1.25951,-1.64625 -0.0376,-2.39126 1.670042,-1.01819 3.016231,-0.66837 2.090394,1.26217 -0.797466,1.66287 -1.241203,1.57221 -2.052814,1.12909 z m -3.98042,-1.62005 c 0.13117,0.0503 0.4687,0.5468 0.66094,0.68552 0.10868,0.0784 0.0705,-0.72431 0.15054,-0.80434 0.41921,-0.41916 1.2684,0.75051 1.2684,1.79403 0,0.61298 -0.0451,0.81628 -0.85915,1.00756 -1.28794,1.36172 -1.97754,0.9787 -1.98503,-1.25853 -0.005,-1.38515 0.5035,-1.5242 0.7643,-1.42424 z m -3.49564,4.00654 c -0.17755,0.94644 -0.91504,2.2326 -2.61065,4.55288 -0.30272,0.41426 -1.08422,1.51273 -1.73667,2.44108 -0.65246,0.92834 -1.57567,1.84919 -2.05159,2.04634 -0.47593,0.19715 -1.0956,0.74825 -1.37705,1.2247 -0.89278,1.51135 -2.23249,2.42214 -3.56281,2.42214 -0.839879,0 -1.521359,0.24354 -2.261789,0.8083 -1.08457,0.82725 -2.36559,3.29316 -2.81375,4.33607 -0.40808,0.94963 -1.01958,1.52938 -2.56361,2.22759 -3.33079,1.50618 -10.38113,3.52781 -10.38113,3.52781 0,0 -0.95074,0.77023 -0.74446,1.41132 0.62822,1.10237 2.05481,0.81077 3.44327,0.36315 2.79863,-0.77916 7.18623,-2.42776 11.19843,-4.20763 2.99664,-1.32937 3.727649,-1.53755 5.399039,-1.53755 1.87882,0 1.98584,-0.0433 3.81009,-1.53716 1.86725,-1.52923 1.87366,-1.53986 1.23794,-2.05462 l -0.63903,-0.51749 c 0.44297,-0.31778 0.7754,-0.65411 1.34143,-0.94605 0.32756,-0.16895 1.46562,-0.54999 1.46562,-0.54999 1.60033,-0.60054 2.65986,-0.59166 2.39688,-1.9115 -0.2033,-1.02038 1.04537,-1.97645 2.70713,-2.42391 1.02544,-0.27613 1.15918,-0.43847 1.5521,-1.88395 0.32583,-1.19872 0.55446,-1.56055 0.94401,-1.49406 0.28273,0.0482 0.80245,-0.0667 1.15493,-0.25524 0.56202,-0.30079 0.61767,-0.51786 0.45234,-1.7642 -0.15866,-1.19604 -0.0897,-1.51358 0.43512,-2.00428 2.361646,-2.20792 2.603629,-3.36013 3.198927,-5.90003 0.238191,-1.01627 1.090235,-1.15282 1.380204,-1.25568 0.684603,-0.24276 0.666239,-0.68725 -0.06684,-1.61926 -0.553989,-0.70428 -0.563254,-0.73028 -0.137367,-1.7559 0.251201,-0.60495 0.864104,-1.53923 1.271051,-2.15706 0.956374,-1.45192 0.949172,-1.74832 -0.158078,-1.96976 -1.112877,-0.22258 -2.019459,-1.41712 -0.387763,-3.20388 2.308043,-2.52738 1.981259,-3.47028 0.882208,-3.81912 -0.692985,-0.21994 -0.730414,-0.99356 -0.118841,-2.45724 0.615873,-1.47401 0.340095,-1.60542 -0.882412,-0.42056 -0.982425,0.95221 -1.027543,0.96512 -1.223005,0.34924 -0.229339,-0.72258 0.0524,-2.29629 0.555253,-3.1015 0.408671,-0.65439 1.602375,-0.47524 1.494002,0.17758 -0.133758,0.80573 1.011317,1.76308 1.096135,-0.0288 0.0093,-0.46575 -0.220837,-1.13517 -0.503601,-1.61384 -0.428975,-0.72619 -0.455885,-1.03325 -0.162495,-1.8541 0.965592,-2.70164 0.599212,-5.35057 -0.801532,-5.79514 -0.356615,-0.11318 -0.704235,-0.55006 -0.802172,-1.00815 -0.09508,-0.44462 -0.289551,-1.07955 -0.43221,-1.41093 -0.246189,-0.57189 -0.260422,-0.56757 -0.279779,0.0847 -0.04476,1.50853 -1.497321,1.66545 -1.853102,0.0456 -0.26174,-1.4289 0.364532,-3.02674 1.314205,-1.5029 0.558721,-0.88637 0.696541,-1.53112 0.740746,-2.06075 0.08291,-0.99345 -0.74063,-1.02787 -1.657703,-1.09336 -0.280178,-0.02 -0.120438,-0.52182 -0.190963,-0.75521 -0.205109,0.0413 -0.660577,0.52409 -0.808387,0.52409 -0.2955,0 -0.53352,-0.73894 -0.643281,-1.08474 -0.28183,-0.88797 0.237821,-2.18225 0.97826,-2.45128 1.043228,-0.37904 0.140444,-2.02365 -1.83633,-1.38198 -0.30068,0.0976 -0.54049,-0.83856 -0.71588,-1.16996 -0.1754,-0.33138 -0.69171,-0.96919 -1.14739,-1.41732 -0.94629,-0.93067 -1.13405,-2.62369 -0.36205,-3.26441 0.64272,-0.5334 0.43295,-1.62401 -0.33346,-1.73364 -0.34111,-0.0487 -0.98507,0.1983 -1.43103,0.5491 -0.66213,0.52084 -0.81082,0.8824 -0.81082,1.97164 0,0.73361 -0.0768,1.33385 -0.17045,1.33385 -0.99331,0 -2.23645,-1.78563 -2.24432,-3.2237 -0.002,-0.46386 -0.14069,-1.04679 -0.30699,-1.29533 -0.26173,-0.39116 -0.36238,-0.37327 -0.74857,0.13288 -0.76556,1.00344 -0.53645,2.08988 0.74857,3.54974 0.6571,0.7465 1.60782,1.52839 2.1127,1.7375 0.60556,0.25086 0.96958,0.64925 1.06958,1.1706 0.4631,2.41423 0.82406,3.58172 1.31865,4.26499 0.35914,0.49613 0.59754,1.47099 0.68126,2.7859 0.0724,1.13804 -0.0817,2.54733 0.68193,3.53708 0.55582,0.7204 1.10224,1.21019 1.22085,2.32862 v 2e-5 c 0.1186,1.11847 0.43125,2.50808 0.69479,3.08802 0.32076,0.70586 0.4893,2.00055 0.5098,3.91649 0.0168,1.57413 0.184791,3.13291 0.373191,3.46392 0.27635,0.48563 0.2211,0.79836 -0.286091,1.619 -0.44794,0.72479 -0.66473,1.67749 -0.75425,3.31462 -0.0691,1.26363 -0.31879,2.80863 -0.55489,3.43336 -0.2361,0.62472 -0.42984,1.84486 -0.43053,2.71141 -0.001,1.08122 -0.23717,2.04057 -0.75318,3.05766 -0.41354,0.81514 -0.75191,1.93494 -0.75191,2.48842 0,0.65005 -0.2217,1.19195 -0.62626,1.53061 -0.51952,0.4349 -1.16555,0.87283 -1.53625,1.98424 -0.16456,0.49338 0.38174,1.6283 -0.29575,1.93697 -1.92403,0.8766 -1.67094,1.15803 -1.91217,2.44393 z m 7.37636,-40.71708 c 0.754731,0.91002 0.708711,1.29575 -0.27103,2.47742 -0.7519,0.90687 -0.75303,2.01853 -1.24256,0.74528 -1.10044,-2.86227 0.15589,-4.85978 1.51359,-3.2227 z m 3.47389,23.39796 c 0.82621,-0.82621 1.717417,0.23756 0.364376,1.84756 -1.236777,1.47165 -1.293642,-0.9183 -0.364376,-1.84756 z m -28.171159,38.16351 c 0,-0.15299 0.32919,-0.66935 0.73152,-1.1475 0.40234,-0.47815 1.0717,-1.63857 1.48749,-2.57873 0.73626,-1.66486 1.97692,-3.22607 2.56367,-3.22607 0.587399,0 0.689019,1.80631 0.18671,3.31863 -0.52761,1.58848 -1.55321,2.60235 -3.47637,3.43661 -1.23307,0.53489 -1.49302,0.56922 -1.49302,0.19706 z m 2.94372,-2.04983 c 0.39821,-0.14206 1.27405,-1.63148 1.27405,-2.16665 0,-0.60068 -0.83688,0.0276 -1.3799,1.03583 -0.57358,1.06509 -0.54567,1.36325 0.10589,1.13082 z m 3.289779,-0.30723 c 0,-0.58672 0.75798,-2.24746 1.20351,-2.5422 0.6919,-0.45778 2.17556,-0.2582 2.49428,0.33731 0.44391,0.82945 0.40098,0.9236 -0.42101,0.9236 -0.49648,0 -1.07668,0.21533 -0.9444,0.67785 0.27372,0.95707 -0.64464,1.03457 -1.71201,1.03596 -0.54937,7.2e-4 -0.62037,-0.12293 -0.62037,-0.43252 z m 1.12569,-4.51992 c 0.23758,-1.01438 1.84504,-2.55568 2.52817,-2.42413 0.27473,0.0529 0.54618,0.33857 0.60322,0.63479 0.13709,0.71179 -0.58636,2.30833 -0.87837,1.83583 -0.0697,-0.11278 -0.19804,-0.43508 -0.36989,-0.42634 -0.19651,0.01 -0.44534,0.37286 -0.6497,0.59867 -0.82733,0.91416 -1.47201,0.79979 -1.23343,-0.21882 z m 4.3903,-3.34864 c 0,-1.1415 1.08662,-2.51127 1.89743,-2.39187 0.66671,0.0981 1.21012,1.45223 0.90349,2.2513 -0.19962,0.52023 -1.14137,0.95697 -2.12305,0.98462 -0.54969,0.0156 -0.67787,-0.1441 -0.67787,-0.84405 z m 3.90934,-0.62978 c 0.33659,-0.62894 2.10991,-1.34511 2.46107,-0.99396 0.36722,0.36721 -0.10509,0.88144 -1.24883,1.35953 -1.23783,0.5174 -1.6227,0.40135 -1.21224,-0.36557 z m -0.37122,-3.40267 c -0.17132,-1.76221 0.0172,-2.02185 1.47301,-2.02897 1.05278,-0.004 1.31728,0.47753 1.09428,1.99692 -0.0942,0.64179 -0.37273,1.00853 -0.93556,1.23174 -1.35301,0.53664 -1.47138,0.44958 -1.63173,-1.19969 z m 3.7482,-0.0175 c -0.11237,-0.94768 1.093,-2.31735 2.03934,-2.31735 0.95859,0 0.7973,1.37163 -0.28904,2.45796 -1.04384,1.04383 -1.61534,0.99794 -1.7503,-0.14061 z m -1.26093,-4.36598 c 0,-1.88321 0.33405,-2.47041 1.40536,-2.47041 0.8741,0 1.36624,0.92562 1.24817,2.34759 -0.081,0.97501 -0.22679,1.16271 -1.14718,1.47659 -0.57995,0.19778 -1.15613,0.36724 -1.2804,0.37658 -0.12427,0.008 -0.22595,-0.7693 -0.22595,-1.73035 z m 4.10508,-0.002 c -0.3138,-1.09421 0.0134,-1.64271 1.41112,-2.3655 1.61352,-0.83438 1.777021,0.57351 0.29608,2.54968 -0.8767,1.16989 -1.33297,1.12064 -1.7072,-0.18418 z m 1.02709,-7.87089 c -0.42487,-0.79403 -0.39399,-2.83 0.0497,-3.27364 0.55107,-0.55107 1.35563,-0.43342 2.03689,0.29782 0.797162,0.85564 0.78105,1.98635 -0.0408,2.86114 -0.7984,0.84986 -1.62738,0.89627 -2.04576,0.11464 z m 3.886099,-2.74182 c -0.743528,-0.75271 -0.589033,-1.49287 0.229602,-2.25554 1.045567,-0.97424 1.209751,-0.90841 1.209751,0.55704 0,0.7125 -0.06953,1.3339 -0.30365,1.65697 -0.442597,0.61075 -0.756129,0.33311 -1.135703,0.0415 z m -1.953819,-3.14306 c -0.2401,-0.57475 -0.43654,-1.59488 -0.43654,-2.26712 0,-1.0476 0.11506,-1.26593 0.805361,-1.52839 1.248811,-0.4748 1.793702,0.30847 1.652528,2.37497 -0.02735,0.40035 -3.21e-4,1.00646 -0.222417,0.9892 -0.215908,-0.0168 -0.903701,-0.98512 -1.054171,-0.91114 -0.16431,0.0808 0.0726,0.8909 0.14836,1.29976 0.266481,1.42046 -0.306,1.44777 -0.893121,0.0426 z m 0.484541,-6.01424 c -0.19678,-0.23711 -0.437071,-1.19942 -0.533991,-2.13848 -0.19516,-1.89082 0.0372,-2.23802 1.503308,-2.24612 0.622354,-0.002 0.911012,0.19284 1.129758,0.76818 0.467809,1.23043 0.35532,1.97896 -0.324093,2.15663 -0.378489,0.099 -0.684902,0.49657 -0.790831,1.02623 -0.192355,0.96176 -0.451158,1.07578 -0.984151,0.43356 z m 0.581969,-7.77849 c -0.772549,-1.26706 -0.771139,-2.76548 0.0033,-3.53991 0.78321,-0.78321 1.032621,-0.75997 1.630122,0.15192 0.947552,1.44615 0.950988,2.49873 0.01141,3.47946 -0.467733,0.4882 -0.894849,0.88765 -0.949123,0.88765 -0.05432,0 -0.367344,-0.44062 -0.695687,-0.97912 z m 2.380209,-3.91799 c -0.718312,-0.61778 -0.762913,-0.7849 -0.514949,-1.92923 0.436508,-2.01436 1.838884,-2.01064 2.217191,0.006 0.180227,0.96072 -0.250871,2.60396 -0.682419,2.60119 -0.128372,-7.8e-4 -0.587297,-0.30585 -1.019823,-0.67784 z m -3.096518,-2.26843 c -0.238591,-0.46139 -0.520781,-1.30873 -0.627081,-1.88294 -0.4298,-2.32172 1.676253,-2.86266 2.704983,-0.69478 0.484699,1.02145 0.487533,1.13724 0.03586,1.4675 -0.269703,0.19721 -0.490363,0.62606 -0.490363,0.95299 0,1.26366 -1.001105,1.36063 -1.623419,0.15723 z m -4.108041,-13.64429 c -0.3153,-0.89464 -0.27631,-1.45399 0.74315,-1.69466 0.46132,-0.10891 0.78779,0.0252 1.05528,0.74389 0.27542,0.74003 0.22056,0.37609 0.28743,0.83675 0.0177,0.12218 0.20199,0.37849 0.16622,0.41801 -0.0897,0.0991 -0.43839,-0.0897 -0.51011,0.0314 -0.1366,0.23071 -0.23373,0.47609 -0.22828,0.63947 -0.11951,0.74931 -0.20504,1.23635 -0.36662,1.21267 -0.31346,-0.0459 -0.85413,-1.35631 -1.14707,-2.18753 z"
         id="path130051"
         sodipodi:nodetypes="cssccsscsssssccssssssscccccsssscccsssssssccssssscsssssccssssssccsscsscssssssscsssssssscssssssssssssccsscsscsccssssccssccssssscsssssssssssssssssscssscsscscsscsccsccsssccscsscscssscscscssssscssssscsssscsssssssssssccsssscsc" />
      <path
         style="fill:#71bf44;fill-opacity:1;stroke:none;stroke-width:0.256379px;stroke-linecap:butt;stroke-linejoin:miter;stroke-opacity:1"
         d="m 83.677637,592.82941 c -1.629989,-6.76075 7.487934,-12.51605 13.395827,-16.11986 -2.583485,5.74198 -0.317924,9.35027 6.794056,10.73589 -3.43448,1.65038 -6.434612,3.7351 -9.453993,5.80058 z"
         id="path56414" />
      <path
         style="fill:#71bf44;fill-opacity:1;stroke:none;stroke-width:0.256379px;stroke-linecap:butt;stroke-linejoin:miter;stroke-opacity:1"
         d="m 10.459271,592.82941 c 1.629989,-6.76075 -7.4879336,-12.51605 -13.3958262,-16.11986 2.5834844,5.74198 0.3179233,9.35027 -6.7940555,10.73589 3.4344822,1.65038 6.4346115,3.7351 9.45399226,5.80058 z"
         id="path51973" />
      <path
         id="path50640"
         style="fill:#71bf44;fill-opacity:1;stroke:none;stroke-width:0.256379px;stroke-linecap:butt;stroke-linejoin:miter;stroke-opacity:1"
         d="m -1.5905631,595.48934 c -0.4811243,3.42612 0.355306,11.50024 -6.7940554,14.48544 -1.2649763,4.55141 27.8552115,14.92783 55.4530725,14.84998 27.597861,0.0779 56.718046,-10.29857 55.453076,-14.84998 -7.149365,-2.9852 -6.312934,-11.05932 -6.794059,-14.48544 -4.496526,11.9246 -32.36398,13.76602 -48.523315,13.77789 -0.04524,0 -0.09047,-0.003 -0.135702,-0.003 -0.04524,4e-5 -0.09046,0.003 -0.135702,0.003 -16.159335,-0.0119 -44.0267888,-1.85329 -48.5233151,-13.77789 z" />
      <g
         aria-label="       Green University"
         transform="matrix(0.24593926,0,0,0.23103467,-7.8101609,520.98837)"
         id="text58665"
         style="font-size:49.3333px;line-height:1.25;font-family:'Siyam Rupali';-inkscape-font-specification:'Siyam Rupali';letter-spacing:0.45px;fill:#22b24c">
        <path
           d="M 74.865767,378.93023 68.77982,381.677 q -2.557761,-6.0413 -8.179012,-8.13368 -4.898842,-1.82348 -9.427463,0.1921 -4.506046,2.02399 -6.237091,6.6745 -1.789868,4.80854 0.397915,9.42696 2.187782,4.61842 7.222076,6.49232 3.273419,1.21846 6.020965,0.67327 2.770122,-0.53678 5.239623,-2.95897 l -9.61708,-3.57974 2.210024,-5.9373 16.705726,6.21831 -0.475843,1.41648 q -1.621805,4.35703 -5.333078,7.42225 -3.711273,3.06521 -8.065431,3.78347 -4.354159,0.71825 -9.185275,-1.08002 -5.169745,-1.92432 -8.40139,-5.67184 -3.200666,-3.76169 -4.024896,-8.79787 -0.801656,-5.02779 0.988212,-9.83633 2.453715,-6.59198 8.625826,-9.84645 7.32935,-3.87753 15.614488,-0.79358 4.334458,1.6134 7.507912,4.61957 2.67893,2.53936 4.499739,6.96978 z"
           style="font-weight:bold;font-family:'Century Gothic';-inkscape-font-specification:'Century Gothic Bold'"
           id="path102169" />
        <path
           d="m 78.462022,383.18007 5.419525,1.54961 -0.907255,3.17297 q 1.4165,-1.62434 3.153739,-2.17987 1.737239,-0.55553 3.474266,-0.0589 1.227499,0.35098 2.385376,1.38357 l -3.52487,4.87979 q -0.952762,-0.87372 -1.670734,-1.07901 -1.459102,-0.41721 -2.994697,1.09792 -1.512435,1.52175 -3.022318,6.80231 l -0.327821,1.23412 -2.91381,10.19056 -6.276458,-1.79464 z"
           style="font-weight:bold;font-family:'Century Gothic';-inkscape-font-specification:'Century Gothic Bold'"
           id="path102171" />
        <path
           d="m 116.47261,408.3825 -20.562788,-4.84402 q -0.195226,2.82477 1.346292,4.89551 1.570488,2.05282 4.571666,2.75982 3.58735,0.84507 6.7575,-1.05615 l 4.79622,3.80263 q -2.69027,2.38548 -5.82976,3.10603 -3.13397,0.69711 -7.00268,-0.21425 -6.002361,-1.41399 -8.888018,-6.07818 -2.880134,-4.68764 -1.53795,-10.38519 1.375325,-5.83824 6.032639,-8.79976 4.686279,-2.97945 10.360389,-1.64278 6.02581,1.41951 8.88938,6.17749 2.86908,4.73453 1.37777,11.06514 z m -5.23688,-6.55446 q -0.13043,-2.28278 -1.69134,-4.06112 -1.53746,-1.77281 -3.99936,-2.35276 -2.67293,-0.62967 -5.04285,0.39591 -1.487055,0.6396 -3.123468,2.75365 z"
           style="font-weight:bold;font-family:'Century Gothic';-inkscape-font-specification:'Century Gothic Bold'"
           id="path102173" />
        <path
           d="m 147.37687,413.92115 -20.80566,-3.66292 q -0.0337,2.8313 1.62341,4.81072 1.68505,1.95987 4.72168,2.49448 3.62972,0.63903 6.68623,-1.43997 l 5.00537,3.52279 q -2.54979,2.53509 -5.64306,3.43359 -3.08908,0.87478 -7.00349,0.18563 -6.07326,-1.06923 -9.22033,-5.56118 -3.14289,-4.51567 -2.12797,-10.28053 1.03999,-5.90719 5.52075,-9.12961 4.50866,-3.24196 10.24979,-2.23121 6.09698,1.0734 9.22735,5.66024 3.13454,4.56313 2.00684,10.96852 z m -5.60231,-6.24499 q -0.26046,-2.27162 -1.92028,-3.95801 -1.63611,-1.6822 -4.12709,-2.12075 -2.7045,-0.47614 -5.01204,0.68299 -1.44815,0.7234 -2.96128,2.92737 z"
           style="font-weight:bold;font-family:'Century Gothic';-inkscape-font-specification:'Century Gothic Bold'"
           id="path102175" />
        <path
           d="m 154.27691,399.72089 6.5056,0.77906 -0.31793,2.65486 q 2.44775,-1.59921 4.3275,-2.10192 1.90653,-0.52377 3.79603,-0.2975 3.87465,0.464 6.25369,3.49035 1.99721,2.56819 1.45875,7.06471 l -2.05936,17.19678 -6.45777,-0.77333 1.36623,-11.40871 q 0.55852,-4.66394 0.31131,-6.24623 -0.22329,-1.57942 -1.18115,-2.49473 -0.93108,-0.93636 -2.46181,-1.11966 -1.98516,-0.23773 -3.58061,0.9298 -1.56868,1.14649 -2.39947,3.42454 -0.43309,1.18543 -0.92,5.25143 l -1.25166,10.452 -6.50559,-0.77906 z"
           style="font-weight:bold;font-family:'Century Gothic';-inkscape-font-specification:'Century Gothic Bold'"
           id="path102177" />
        <path
           d="m 192.85219,394.77329 7.79147,0.20292 -0.79171,22.92197 q -0.10226,2.96156 0.43758,4.20469 0.5676,1.24385 1.90047,2.02564 1.36144,0.75844 3.30237,0.80899 2.05185,0.0534 3.54969,-0.72693 1.52557,-0.77964 2.12336,-2.01724 0.62636,-1.26095 0.74944,-4.82445 l 0.7626,-22.07925 7.79148,0.20292 -0.72934,21.11615 q -0.18462,5.34525 -0.94934,7.39787 -0.76471,2.05263 -2.79989,3.92758 -2.00748,1.87566 -4.59085,2.74825 -2.58255,0.84852 -5.96533,0.76041 -4.43642,-0.11554 -7.6753,-1.95915 -3.21033,-1.86696 -4.53295,-4.55234 -1.32181,-2.70945 -1.10309,-9.04189 z"
           style="font-weight:bold;font-family:'Century Gothic';-inkscape-font-specification:'Century Gothic Bold';stroke-width:1.07312"
           id="path102179" />
        <path
           d="m 226.39509,404.68747 6.5484,-0.2194 0.0895,2.67233 q 2.17606,-1.95287 3.95748,-2.73562 1.8047,-0.80763 3.70663,-0.87135 3.90015,-0.13067 6.71177,2.49866 2.36457,2.23457 2.51621,6.76068 l 0.57996,17.30993 -6.50026,0.21779 -0.38475,-11.48378 q -0.15729,-4.69463 -0.64227,-6.22091 -0.4609,-1.52709 -1.54682,-2.28608 -1.06265,-0.78386 -2.60345,-0.73224 -1.99822,0.0669 -3.39755,1.46355 -1.37607,1.37171 -1.85074,3.74962 -0.24777,1.2375 -0.11064,5.33026 l 0.35249,10.52078 -6.5484,0.2194 z"
           style="font-weight:bold;font-family:'Century Gothic';-inkscape-font-specification:'Century Gothic Bold'"
           id="path102181" />
        <path
           d="m 257.01352,392.42588 q 1.72922,-0.13361 3.05059,1.02062 1.34538,1.15238 1.48271,2.92963 0.13548,1.75324 -0.99288,3.09676 -1.13022,1.31951 -2.83542,1.45128 -1.75324,0.13547 -3.09862,-1.01691 -1.32322,-1.17825 -1.46241,-2.97952 -0.13362,-1.72921 0.9966,-3.04873 1.13021,-1.31951 2.85943,-1.45313 z m -2.45891,11.01384 6.58064,-0.5085 2.01914,26.13042 -6.58064,0.5085 z"
           style="font-weight:bold;font-family:'Century Gothic';-inkscape-font-specification:'Century Gothic Bold'"
           id="path102183" />
        <path
           d="m 263.72967,402.86592 6.65232,-0.76891 8.3562,14.60195 4.78094,-16.12039 6.62839,-0.76614 -8.06999,27.31557 -4.23547,0.48955 z"
           style="font-weight:bold;font-family:'Century Gothic';-inkscape-font-specification:'Century Gothic Bold'"
           id="path102185" />
        <path
           d="m 321.42402,409.75977 -20.82616,3.54455 q 0.92003,2.67786 3.14616,3.98499 2.24584,1.27934 5.28546,0.76201 3.6333,-0.61838 5.81302,-3.60389 l 5.89832,1.63509 q -1.54917,3.24472 -4.16035,5.1308 -2.61523,1.86233 -6.53349,2.52921 -6.07924,1.03466 -10.55323,-2.1379 -4.47802,-3.19631 -5.46015,-8.96684 -1.00637,-5.91302 2.13032,-10.4542 3.1564,-4.56897 8.90318,-5.54706 6.10299,-1.0387 10.59314,2.22885 4.48611,3.2438 5.57736,9.6555 z m -7.37565,-3.99819 q -1.00896,-2.05186 -3.1391,-3.08211 -2.10639,-1.03429 -4.59983,-0.60991 -2.70716,0.46075 -4.49074,2.32814 -1.12068,1.16814 -1.80483,3.7525 z"
           style="font-weight:bold;font-family:'Century Gothic';-inkscape-font-specification:'Century Gothic Bold'"
           id="path102187" />
        <path
           d="m 321.94469,394.21787 5.51175,-1.18029 0.69103,3.22697 q 0.48651,-2.09958 1.7586,-3.40664 1.27208,-1.30706 3.03867,-1.68536 1.24839,-0.26733 2.75579,0.0996 l -0.81681,5.96405 q -1.25167,-0.3232 -1.98186,-0.16684 -1.48393,0.31777 -2.1269,2.37696 -0.61942,2.05414 0.5306,7.42457 l 0.29089,1.24335 2.21934,10.36399 -6.38327,1.36691 z"
           style="font-weight:bold;font-family:'Century Gothic';-inkscape-font-specification:'Century Gothic Bold'"
           id="path102189" />
        <path
           d="m 354.85641,390.28073 -2.95557,4.94066 q -3.00529,-1.77797 -4.96767,-1.28463 -1.07463,0.27016 -1.56457,0.89009 -0.49582,0.59657 -0.3255,1.27405 0.12921,0.51396 0.61458,0.86386 0.50286,0.32067 2.2093,0.68649 l 2.62982,0.58078 q 4.14923,0.89427 6.00328,2.44005 1.85405,1.54578 2.4942,4.0922 0.85159,3.38743 -1.07842,6.28192 -1.90664,2.88862 -6.08837,3.93989 -5.56006,1.39778 -9.96979,-2.11351 l 2.84998,-5.26184 q 1.45025,1.02634 3.15095,1.46812 1.71819,0.41255 2.88627,0.1189 1.26152,-0.31714 1.87976,-1.11835 0.61823,-0.80122 0.41855,-1.59551 -0.37,-1.47178 -3.50241,-2.17459 l -2.41943,-0.53431 q -6.94858,-1.55662 -8.12318,-6.22894 -0.75762,-3.01365 1.02073,-5.72098 1.79584,-2.73657 5.41689,-3.64689 2.47633,-0.62254 4.92499,-0.0707 2.46615,0.52257 4.49561,2.17328 z"
           style="font-weight:bold;font-family:'Century Gothic';-inkscape-font-specification:'Century Gothic Bold'"
           id="path102191" />
        <path
           d="m 358.45123,374.19954 q 1.66644,-0.48068 3.19398,0.38238 1.55069,0.85638 2.04472,2.56911 0.48736,1.68958 -0.34588,3.23359 -0.83991,1.52087 -2.4832,1.99487 -1.68958,0.48735 -3.24027,-0.36903 -1.53422,-0.8862 -2.03493,-2.62207 -0.48067,-1.66643 0.35924,-3.1873 0.83991,-1.52087 2.50634,-2.00155 z m -0.17998,11.28355 6.34171,-1.82925 7.26356,25.18168 -6.34171,1.82924 z"
           style="font-weight:bold;font-family:'Century Gothic';-inkscape-font-specification:'Century Gothic Bold'"
           id="path102193" />
        <path
           d="m 367.72899,372.60985 6.23451,-2.01511 2.9708,9.19132 3.7132,-1.20018 1.74099,5.38643 -3.7132,1.20018 6.31944,19.5516 -6.23451,2.0151 -6.31943,-19.5516 -3.20894,1.03719 -1.74099,-5.38643 3.20893,-1.03719 z"
           style="font-weight:bold;font-family:'Century Gothic';-inkscape-font-specification:'Century Gothic Bold'"
           id="path102195" />
        <path
           d="m 380.0653,379.14192 6.23582,-2.50645 12.46109,12.72309 0.83753,-18.06839 6.25817,-2.51543 -1.89335,39.3399 -6.30288,2.5334 0.70335,-12.71829 z"
           style="font-weight:bold;font-family:'Century Gothic';-inkscape-font-specification:'Century Gothic Bold'"
           id="path102197" />
      </g>
      <path
         d="m 11.094149,609.02627 -1.4967733,0.6346 q -0.6290538,-1.39575 -2.0115401,-1.87916 -1.2048176,-0.42129 -2.3185833,0.0444 -1.1082136,0.46761 -1.5339455,1.54204 -0.4401989,1.11094 0.097863,2.17795 0.5380615,1.06702 1.776192,1.49996 0.8050623,0.2815 1.4807917,0.15554 0.6812817,-0.12401 1.288629,-0.68362 l -2.3652176,-0.82704 0.5435317,-1.37173 4.1085934,1.43665 -0.117028,0.32725 q -0.398866,1.00663 -1.3116132,1.7148 -0.9127478,0.70817 -1.9836062,0.87411 -1.0708586,0.16595 -2.2590197,-0.24952 -1.2714433,-0.44458 -2.0662316,-1.31039 -0.7871695,-0.86908 -0.98988,-2.03261 -0.1971587,-1.1616 0.2430401,-2.27254 0.6034649,-1.52297 2.1214293,-2.27487 1.8025749,-0.89584 3.8402156,-0.18334 1.0660134,0.37275 1.8464904,1.06728 0.6588543,0.58668 1.1066623,1.61026 z"
         style="font-weight:bold;font-size:49.3333px;line-height:1.25;font-family:'Century Gothic';-inkscape-font-specification:'Century Gothic Bold';letter-spacing:0.45px;fill:#ffffff;stroke-width:0.238371"
         id="path102138" />
      <path
         d="m 11.978609,610.00813 1.332874,0.35801 -0.223129,0.73307 q 0.348373,-0.37528 0.775628,-0.50362 0.427255,-0.12835 0.854458,-0.0136 0.301891,0.0811 0.586658,0.31965 l -0.866904,1.1274 q -0.234322,-0.20186 -0.410899,-0.24929 -0.358851,-0.0964 -0.736514,0.25366 -0.371967,0.35158 -0.743306,1.57157 l -0.08062,0.28512 -0.716621,2.35438 -1.543627,-0.41463 z"
         style="font-weight:bold;font-size:49.3333px;line-height:1.25;font-family:'Century Gothic';-inkscape-font-specification:'Century Gothic Bold';letter-spacing:0.45px;fill:#ffffff;stroke-width:0.238371"
         id="path102140" />
      <path
         d="m 21.326905,615.83077 -5.057197,-1.11914 q -0.04801,0.65262 0.331106,1.13103 0.386245,0.47427 1.124353,0.63762 0.88227,0.19524 1.661934,-0.24401 l 1.179579,0.87854 q -0.661643,0.55113 -1.433767,0.7176 -0.770766,0.16106 -1.722234,-0.0495 -1.476216,-0.32668 -2.185912,-1.40427 -0.708338,-1.08301 -0.378243,-2.39934 0.338247,-1.34884 1.483663,-2.03305 1.15254,-0.68836 2.548026,-0.37954 1.481984,0.32796 2.186248,1.42722 0.705619,1.09384 0.338848,2.55643 z m -1.287954,-1.51431 q -0.03208,-0.5274 -0.415967,-0.93826 -0.378122,-0.40958 -0.9836,-0.54357 -0.657378,-0.14548 -1.240235,0.0915 -0.365725,0.14777 -0.768183,0.63619 z"
         style="font-weight:bold;font-size:49.3333px;line-height:1.25;font-family:'Century Gothic';-inkscape-font-specification:'Century Gothic Bold';letter-spacing:0.45px;fill:#ffffff;stroke-width:0.238371"
         id="path102142" />
      <path
         d="m 28.927476,617.11039 -5.116929,-0.84627 q -0.0083,0.65413 0.399261,1.11145 0.41442,0.4528 1.161246,0.57631 0.892691,0.14764 1.644407,-0.33268 l 1.231017,0.81388 q -0.627094,0.5857 -1.38785,0.79328 -0.759726,0.20211 -1.722434,0.0429 -1.493653,-0.24703 -2.267641,-1.28483 -0.77296,-1.04327 -0.523351,-2.37516 0.255774,-1.36476 1.357769,-2.10925 1.108857,-0.74901 2.520826,-0.51549 1.499487,0.24799 2.269368,1.30771 0.770906,1.05424 0.49356,2.53411 z m -1.377828,-1.44281 q -0.06406,-0.52483 -0.472272,-0.91444 -0.402384,-0.38865 -1.015014,-0.48997 -0.665142,-0.11 -1.232657,0.1578 -0.356157,0.16713 -0.728295,0.67632 z"
         style="font-weight:bold;font-size:49.3333px;line-height:1.25;font-family:'Century Gothic';-inkscape-font-specification:'Century Gothic Bold';letter-spacing:0.45px;fill:#ffffff;stroke-width:0.238371"
         id="path102144" />
      <path
         d="m 30.624467,613.82963 1.599982,0.17999 -0.07819,0.61337 q 0.601998,-0.36947 1.064302,-0.48562 0.46889,-0.12101 0.933593,-0.0687 0.952928,0.1072 1.538028,0.80639 0.491192,0.59334 0.358764,1.63219 l -0.506478,3.97306 -1.588219,-0.17867 0.336009,-2.63581 q 0.137362,-1.07753 0.07656,-1.44309 -0.05492,-0.3649 -0.290491,-0.57637 -0.228989,-0.21633 -0.605456,-0.25868 -0.488229,-0.0549 -0.880613,0.21481 -0.3858,0.26488 -0.590124,0.79119 -0.106513,0.27388 -0.226264,1.21326 l -0.307832,2.41478 -1.59998,-0.17999 z"
         style="font-weight:bold;font-size:49.3333px;line-height:1.25;font-family:'Century Gothic';-inkscape-font-specification:'Century Gothic Bold';letter-spacing:0.45px;fill:#ffffff;stroke-width:0.238371"
         id="path102146" />
      <path
         d="m 40.186206,612.68657 1.916228,0.0469 -0.194711,5.29577 q -0.02515,0.68422 0.107616,0.97143 0.139594,0.28737 0.4674,0.46799 0.334831,0.17523 0.812182,0.18691 0.504631,0.0123 0.873008,-0.16795 0.375198,-0.18012 0.522218,-0.46605 0.154046,-0.29133 0.184317,-1.11462 l 0.187553,-5.10107 1.916231,0.0469 -0.179373,4.87856 q -0.04541,1.23494 -0.233479,1.70917 -0.188073,0.47423 -0.688606,0.90741 -0.493717,0.43334 -1.12907,0.63494 -0.63515,0.19603 -1.467106,0.17568 -1.091091,-0.0267 -1.88766,-0.45263 -0.789545,-0.43134 -1.11483,-1.05175 -0.325085,-0.62598 -0.271293,-2.08899 z"
         style="font-weight:bold;font-size:49.3333px;line-height:1.25;font-family:'Century Gothic';-inkscape-font-specification:'Century Gothic Bold';letter-spacing:0.45px;fill:#ffffff;stroke-width:0.255801"
         id="path102148" />
      <path
         d="m 48.361159,614.97709 1.610508,-0.0507 0.02201,0.6174 q 0.535178,-0.45118 0.9733,-0.63203 0.443846,-0.18659 0.911605,-0.20131 0.9592,-0.0302 1.650688,0.57728 0.581541,0.51626 0.618835,1.56195 l 0.142635,3.9992 -1.598669,0.0503 -0.09463,-2.65315 q -0.03868,-1.08462 -0.15796,-1.43724 -0.113353,-0.35282 -0.380424,-0.52817 -0.261347,-0.1811 -0.64029,-0.16917 -0.491441,0.0154 -0.835591,0.33813 -0.33843,0.31691 -0.45517,0.86629 -0.06094,0.28591 -0.02721,1.23148 l 0.08669,2.43066 -1.610509,0.0507 z"
         style="font-weight:bold;font-size:49.3333px;line-height:1.25;font-family:'Century Gothic';-inkscape-font-specification:'Century Gothic Bold';letter-spacing:0.45px;fill:#ffffff;stroke-width:0.238371"
         id="path102150" />
      <path
         d="m 55.891433,612.14423 q 0.425283,-0.0309 0.750259,0.2358 0.330882,0.26624 0.364657,0.67685 0.03332,0.40506 -0.244188,0.71546 -0.277966,0.30485 -0.697341,0.33529 -0.431191,0.0313 -0.762073,-0.23494 -0.325431,-0.27221 -0.359664,-0.68837 -0.03286,-0.39951 0.245104,-0.70436 0.277963,-0.30486 0.703246,-0.33573 z m -0.604743,2.54458 1.618438,-0.11748 0.496586,6.03703 -1.618438,0.11749 z"
         style="font-weight:bold;font-size:49.3333px;line-height:1.25;font-family:'Century Gothic';-inkscape-font-specification:'Century Gothic Bold';letter-spacing:0.45px;fill:#ffffff;stroke-width:0.238371"
         id="path102152" />
      <path
         d="m 57.543198,614.55624 1.636066,-0.17764 2.055118,3.37356 1.175821,-3.72437 1.630181,-0.17701 -1.984727,6.31085 -1.041669,0.1131 z"
         style="font-weight:bold;font-size:49.3333px;line-height:1.25;font-family:'Century Gothic';-inkscape-font-specification:'Century Gothic Bold';letter-spacing:0.45px;fill:#ffffff;stroke-width:0.238371"
         id="path102154" />
      <path
         d="m 71.732503,616.14896 -5.12197,0.81892 q 0.226271,0.61868 0.773764,0.92067 0.55234,0.29557 1.299902,0.17605 0.893571,-0.14287 1.42965,-0.83262 l 1.450629,0.37776 q -0.381002,0.74964 -1.023194,1.18539 -0.643188,0.43026 -1.606841,0.58434 -1.495124,0.23904 -2.595454,-0.49393 -1.101321,-0.73846 -1.342865,-2.07165 -0.247506,-1.36612 0.523929,-2.41529 0.776283,-1.05559 2.189642,-1.28156 1.500964,-0.23998 2.605269,0.51494 1.10331,0.74943 1.371691,2.23076 z m -1.813962,-0.92372 q -0.248142,-0.47405 -0.772028,-0.71207 -0.518044,-0.23896 -1.131278,-0.14091 -0.665797,0.10645 -1.10445,0.53788 -0.275619,0.26988 -0.443878,0.86696 z"
         style="font-weight:bold;font-size:49.3333px;line-height:1.25;font-family:'Century Gothic';-inkscape-font-specification:'Century Gothic Bold';letter-spacing:0.45px;fill:#ffffff;stroke-width:0.238371"
         id="path102156" />
      <path
         d="m 71.860557,612.55825 1.355555,-0.27269 0.169952,0.74554 q 0.119652,-0.48508 0.432508,-0.78705 0.312855,-0.30198 0.747329,-0.38938 0.307028,-0.0618 0.677757,0.023 l -0.200886,1.3779 q -0.307835,-0.0747 -0.487417,-0.0385 -0.364957,0.0734 -0.523088,0.54916 -0.15234,0.47458 0.130495,1.71533 l 0.07154,0.28726 0.545823,2.39444 -1.569897,0.3158 z"
         style="font-weight:bold;font-size:49.3333px;line-height:1.25;font-family:'Century Gothic';-inkscape-font-specification:'Century Gothic Bold';letter-spacing:0.45px;fill:#ffffff;stroke-width:0.238371"
         id="path102158" />
      <path
         d="m 79.954841,611.64863 -0.726891,1.14146 q -0.739119,-0.41077 -1.221745,-0.29679 -0.264294,0.0624 -0.384789,0.20564 -0.121942,0.13783 -0.08005,0.29435 0.03178,0.11874 0.15115,0.19958 0.123673,0.0741 0.543353,0.15861 l 0.646776,0.13418 q 1.020459,0.2066 1.476443,0.56373 0.455983,0.35713 0.613421,0.94544 0.20944,0.78262 -0.265226,1.45134 -0.468917,0.66737 -1.497369,0.91025 -1.367437,0.32294 -2.451963,-0.48829 l 0.700922,-1.21567 q 0.356674,0.23712 0.774943,0.33919 0.42257,0.0953 0.709847,0.0275 0.310257,-0.0733 0.462307,-0.25838 0.152047,-0.18511 0.102938,-0.36862 -0.091,-0.34003 -0.861381,-0.5024 l -0.595032,-0.12345 q -1.708929,-0.35963 -1.997809,-1.4391 -0.186329,-0.69625 0.251037,-1.32174 0.441668,-0.63224 1.332226,-0.84256 0.609027,-0.14383 1.211249,-0.0163 0.606523,0.12073 1.105647,0.5021 z"
         style="font-weight:bold;font-size:49.3333px;line-height:1.25;font-family:'Century Gothic';-inkscape-font-specification:'Century Gothic Bold';letter-spacing:0.45px;fill:#ffffff;stroke-width:0.238371"
         id="path102160" />
      <path
         d="m 80.838948,607.93332 q 0.409843,-0.11106 0.785525,0.0883 0.381376,0.19785 0.502877,0.59355 0.119861,0.39036 -0.08507,0.74708 -0.206566,0.35137 -0.610716,0.46088 -0.415534,0.11259 -0.796909,-0.0853 -0.377325,-0.20474 -0.50047,-0.60579 -0.118215,-0.385 0.08835,-0.73638 0.206566,-0.35137 0.616407,-0.46242 z m -0.04426,2.60689 1.559675,-0.42262 1.786395,5.81784 -1.559676,0.42262 z"
         style="font-weight:bold;font-size:49.3333px;line-height:1.25;font-family:'Century Gothic';-inkscape-font-specification:'Century Gothic Bold';letter-spacing:0.45px;fill:#ffffff;stroke-width:0.238371"
         id="path102162" />
      <path
         d="m 83.120713,607.56604 1.533311,-0.46556 0.730637,2.12352 0.913221,-0.27729 0.428178,1.24446 -0.913222,0.27728 1.554199,4.5171 -1.533311,0.46555 -1.554196,-4.51709 -0.789204,0.23962 -0.428178,-1.24445 0.789202,-0.23962 z"
         style="font-weight:bold;font-size:49.3333px;line-height:1.25;font-family:'Century Gothic';-inkscape-font-specification:'Century Gothic Bold';letter-spacing:0.45px;fill:#ffffff;stroke-width:0.238371"
         id="path102164" />
      <path
         d="m 86.154696,609.07518 1.533633,-0.57908 3.064672,2.93948 0.205981,-4.17443 1.53913,-0.58115 -0.465649,9.08888 -1.550126,0.5853 0.172981,-2.93836 z"
         style="font-weight:bold;font-size:49.3333px;line-height:1.25;font-family:'Century Gothic';-inkscape-font-specification:'Century Gothic Bold';letter-spacing:0.45px;fill:#ffffff;stroke-width:0.238371"
         id="path102166" />
      <path
         id="path89378"
         style="fill:#22b24c;fill-opacity:1;stroke:#22b24c;stroke-width:0;stroke-linecap:butt;stroke-linejoin:miter;stroke-miterlimit:4;stroke-dasharray:none;stroke-opacity:1"
         d="m 2.9109708,591.2431 c -2.80153179,-0.10808 -5.0952908,0.75578 -4.5015339,4.24624 1.30520827,3.46136 4.5818184,6.07214 8.9674112,8.03622 0.9637711,-3.62905 2.0443328,-7.14134 3.0824989,-10.69599 -1.4374627,-0.39823 -4.7468441,-1.47839 -7.5483762,-1.58647 z" />
      <path
         id="path89620"
         style="fill:#22b24c;fill-opacity:1;stroke:none;stroke-width:0.256379px;stroke-linecap:butt;stroke-linejoin:miter;stroke-opacity:1"
         d="m 91.225938,591.2431 c 2.80153,-0.10808 5.09529,0.75578 4.501533,4.24624 -1.305209,3.46136 -4.581818,6.07214 -8.967412,8.03622 -0.963771,-3.62905 -2.044331,-7.14134 -3.082499,-10.69599 1.437464,-0.39823 4.746845,-1.47839 7.548378,-1.58647 z" />
      <g
         id="g38415"
         transform="matrix(0.25637945,0,0,0.25637945,-9.9759732,519.63851)">
        <g
           id="g41617"
           transform="translate(-21.38654,-1.8451091)">
          <path
             id="path2482"
             style="fill:#71bf44;fill-opacity:1;stroke:none;stroke-width:1px;stroke-linecap:butt;stroke-linejoin:miter;stroke-opacity:1"
             d="m 243.88654,59.056781 c -16.55211,1.047012 -21.59672,2.853938 -28.49805,4.582796 -25.06157,13.625179 -52.98616,19.17567 -84.03711,10.507048 l 0.78516,142.164065 c 9.39553,42.40555 54.19432,84.53366 111.75,112.0625 57.55568,-27.52884 102.35447,-69.65695 111.75,-112.0625 L 356.4217,74.146625 c -31.05095,8.668622 -58.97554,3.118131 -84.03711,-10.507048 -6.90133,-1.728858 -11.94594,-3.535784 -28.49805,-4.582796 z" />
          <g
             id="g41581">
            <path
               id="path12503"
               style="fill:url(#linearGradient34999);fill-opacity:1;stroke:none;stroke-width:1px;stroke-linecap:butt;stroke-linejoin:miter;stroke-opacity:1"
               d="m 260.06135,222.68068 c 0.0705,19.5041 1.06124,39.00955 4.48046,58.51367 -12.70069,11.75535 -15.92984,25.53936 -20.65429,39.00391 -4.72445,-13.46455 -7.95555,-27.24856 -20.65625,-39.00391 3.41923,-19.50411 4.40997,-39.00956 4.48047,-58.51367 0,0 0,0 0,0 z" />
            <g
               id="g41565"
               transform="translate(818.7945,3.448847)">
              <path
                 style="fill:none;stroke:#71bf44;stroke-width:1px;stroke-linecap:butt;stroke-linejoin:miter;stroke-opacity:1"
                 d="M -574.90798,316.74941 V 216.46136"
                 id="path38522" />
              <circle
                 style="fill:#71bf44;fill-opacity:1;fill-rule:evenodd;stroke:none"
                 id="path39706"
                 cx="-574.90796"
                 cy="258.25"
                 r="5.4375" />
            </g>
            <path
               id="path992"
               style="fill:url(#linearGradient16247);fill-opacity:1;stroke:none;stroke-width:1px;stroke-linecap:butt;stroke-linejoin:miter;stroke-opacity:1"
               d="m 262.83771,222.68059 9.54688,-159.041013 c -9.49911,-4.15102 -18.99895,-4.58599 -28.49805,-4.58399 v 0 c -9.4991,-0.003 -18.99895,0.43297 -28.49805,4.58399 l 9.54688,159.041013 z" />
            <path
               id="path13331"
               style="fill:url(#linearGradient19429);fill-opacity:1;stroke:none;stroke-width:1px;stroke-linecap:butt;stroke-linejoin:miter;stroke-opacity:1"
               d="m 224.31261,222.68068 c -6.00304,0.0837 -6.28777,4.20009 3.41406,3.79883 h 16.16016 16.16015 c 10.01479,0.4142 9.3873,-3.98629 2.81445,-3.79492 h -18.9746 -18.97461 c -0.20541,-0.006 -0.40597,-0.007 -0.59961,-0.004 z" />
          </g>
        </g>
        <path
           style="fill:url(#linearGradient47768);fill-opacity:1;stroke:none;stroke-width:1px;stroke-linecap:butt;stroke-linejoin:miter;stroke-opacity:1"
           d="m 207.52186,41.323108 h 30.58237 c 20.52043,-11.333345 15.7725,-26.834459 0.70711,-38.2721538 -8.57784,-6.512329 -8.96002,-10.973126 -9.81111,-16.1750682 -9.9212,13.5062382 6.1429,21.5436332 9.8995,28.195883 6.73633,11.928803 -0.97072,18.435905 -7.95496,22.097087 10.79267,-13.744661 5.03679,-20.746507 -3.27036,-31.2010868 -12.21955,-17.2225722 4.43891,-25.1074182 5.56846,-26.1629512 -24.10307,3.377429 -24.63478,22.4895232 -12.72792,35.797281 9.69627,10.837083 6.11943,15.87786 3.27037,21.743534 1.04425,-9.598658 -2.27653,-17.501083 -9.8995,-23.864854 -6.14384,-5.1289758 -4.30595,-10.8788578 -3.09359,-16.5286208 -5.06105,2.464411 -16.34737,14.7130898 -3.18198,27.0468338 11.90675,10.245749 10.90927,11.888686 11.22532,14.407301 -3.68723,-3.974341 -7.92626,-7.050603 -14.67246,-12.374369 -6.56973,-5.184503 -4.148,-9.865923 -4.50781,-14.318912 -7.57209,8.005267 -9.14618,15.918257 -1.41421,23.688077 2.52671,2.682609 5.82056,4.406289 9.28077,5.922019 z"
           id="path41679" />
        <path
           id="rect48300"
           style="fill:#22b24c;fill-opacity:1;fill-rule:evenodd"
           d="m 195.36477,45.421892 h 54.27045 v 7.689786 h -54.27045 z" />
        <g
           id="g38363">
          <g
             id="g57436"
             transform="matrix(0.9934398,0,0,0.9934398,787.30731,-44.953726)">
            <g
               id="g57418">
              <path
                 style="fill:#ffffff;fill-opacity:1;stroke:none;stroke-width:1px;stroke-linecap:butt;stroke-linejoin:miter;stroke-opacity:1"
                 d="m -499.40625,225.96875 v -27.6253 l -7.94286,-18.208 v 29.07977 z"
                 id="path56902" />
              <path
                 style="fill:#ffffff;fill-opacity:1;stroke:none;stroke-width:1px;stroke-linecap:butt;stroke-linejoin:miter;stroke-opacity:1"
                 d="m -520.6875,217.25 v -29.07121 l 7.46056,6.31977 v 18.42897 l 11.20747,14.66756 z"
                 id="path56904" />
              <path
                 style="fill:#ffffff;fill-opacity:1;stroke:none;stroke-width:1px;stroke-linecap:butt;stroke-linejoin:miter;stroke-opacity:1"
                 d="m -504.24525,231.73594 -27.36647,0.0625 v -31.37786 h 7.33624 v 21.9645 z"
                 id="path56906" />
            </g>
            <g
               id="g57426"
               transform="matrix(-1,0,0,1,-996.018,0)">
              <path
                 style="fill:#ffffff;fill-opacity:1;stroke:none;stroke-width:1px;stroke-linecap:butt;stroke-linejoin:miter;stroke-opacity:1"
                 d="m -499.40625,225.96875 v -27.6253 l -7.94286,-18.208 v 29.07977 z"
                 id="path57420" />
              <path
                 style="fill:#ffffff;fill-opacity:1;stroke:none;stroke-width:1px;stroke-linecap:butt;stroke-linejoin:miter;stroke-opacity:1"
                 d="m -520.6875,217.25 v -29.07121 l 7.46056,6.31977 v 18.42897 l 11.20747,14.66756 z"
                 id="path57422" />
              <path
                 style="fill:#ffffff;fill-opacity:1;stroke:none;stroke-width:1px;stroke-linecap:butt;stroke-linejoin:miter;stroke-opacity:1"
                 d="m -504.24525,231.73594 -27.36647,0.0625 v -31.37786 h 7.33624 v 21.9645 z"
                 id="path57424" />
            </g>
          </g>
          <g
             id="g37157"
             transform="matrix(1.0110779,0,0,1.0110779,452.15847,-35.619681)">
            <g
               id="g7493">
              <g
                 id="g7084">
                <path
                   style="fill:#ffffff;fill-opacity:1;stroke:none;stroke-width:1px;stroke-linecap:butt;stroke-linejoin:miter;stroke-opacity:1"
                   d="m -335.12499,185.125 37.125,-8.625 40.125,5.75 -40.375,8.25 z"
                   id="path5992" />
                <g
                   id="g6969"
                   transform="translate(0.21874999,-0.62500003)">
                  <path
                     style="fill:#ffefef;fill-opacity:1;stroke:#ffffff;stroke-width:1px;stroke-linecap:butt;stroke-linejoin:miter;stroke-opacity:1"
                     d="m -328.27432,186.36682 0.0884,10.96016"
                     id="path6107" />
                  <path
                     id="path6155"
                     style="fill:#ffffff;fill-opacity:1;fill-rule:evenodd;stroke:#ffffff;stroke-width:0.832;stroke-miterlimit:4;stroke-dasharray:none;stroke-opacity:1"
                     d="m -326.52125,197.44485 a 1.7088677,1.7088677 0 0 1 -1.70886,1.70887 1.7088677,1.7088677 0 0 1 -1.70887,-1.70887 1.7088677,1.7088677 0 0 1 1.70887,-1.70886 1.7088677,1.7088677 0 0 1 1.70886,1.70886 z" />
                  <path
                     style="fill:#ffefef;fill-opacity:1;stroke:#ffffff;stroke-width:1.898;stroke-linecap:round;stroke-linejoin:miter;stroke-miterlimit:4;stroke-dasharray:none;stroke-opacity:1"
                     d="m -328.27552,192.12475 0.0908,5.1943 v 0"
                     id="path6501" />
                </g>
              </g>
              <path
                 style="fill:#ffffff;fill-opacity:1;stroke:none;stroke-width:1px;stroke-linecap:butt;stroke-linejoin:miter;stroke-opacity:1"
                 d="m -316.60705,189.15106 18.51735,2.78423 16.08971,-3.49779 2.51604,11.49694 c -15.28145,2.34672 -28.87697,2.25731 -39.68637,-0.0884 z"
                 id="path7119" />
            </g>
            <g
               id="g37141"
               transform="translate(-2.0294418,-35.648734)">
              <path
                 id="path7668"
                 style="fill:#ffffff;fill-opacity:1;stroke:none;stroke-width:1px;stroke-linecap:butt;stroke-linejoin:miter;stroke-opacity:1"
                 d="m -255.59732,227.4227 c -13.28927,7.41871 -23.99001,14.46358 -54.47461,24.37109 -0.20483,1.24524 -0.22385,2.25481 -0.11718,3.10547 l 0.043,0.3457 c 0.49443,2.79329 2.54354,3.61953 4.40624,4.67969 16.68221,-10.62043 35.32847,-18.12042 56.01758,-22.37695 -0.10443,-1.94068 -0.18466,-3.89128 -0.81836,-5.60742 l 0.0527,2.88867 c 0.0172,0.94011 -0.81463,1.12664 -1.4375,0.5 -1.33642,-1.34449 -2.08424,-3.00261 -2.45313,-4.67188 -0.15681,-0.7096 0.11015,-1.01617 0.6875,-0.75 0.76566,0.35298 1.36813,1.10126 1.95313,2.60938 0.96235,2.48097 0.77745,-0.0548 0.85547,-1.36524 v -0.002 c -0.79306,-1.57246 -2.18438,-2.89118 -4.71485,-3.72656 z m 0.0195,0.82031 c 0.12385,0.0114 0.26643,0.0524 0.42774,0.12109 0.30931,0.1317 0.68186,0.38888 1.02539,0.61719 -0.91372,-0.28775 -1.6836,-0.38117 -1.57617,1.10157 l 0.20898,1.85937 c -0.32736,-1.04338 -0.73668,-2.03624 -0.68555,-3.01953 0.0254,-0.48928 0.22805,-0.71403 0.59961,-0.67969 z m -52.9414,25.36719 c 0.54229,-0.01 0.92427,0.22482 1.51953,1.16601 0.76457,1.20886 0.54511,2.36997 0.46484,2.58594 0,0 -0.211,0.877 -1.00586,0.36524 -0.63415,-0.43274 -0.82236,-0.93174 -0.95507,-1.23243 -0.36986,-0.83803 -0.54651,-1.61666 -0.35938,-1.89453 0.21027,-0.31222 0.63819,-0.29521 0.85742,-0.0234 0.15842,0.1964 0.99909,1.35159 0.86914,2.10156 -0.0399,0.23022 -0.39537,0.24615 -0.62109,-0.14844 -0.30678,-0.53629 -0.35913,-1.07724 -0.43555,-1.58984 -0.0458,-0.30733 -0.40811,-0.27305 -0.40625,-0.008 0.004,0.57768 0.19646,1.05435 0.45703,1.57032 0.21535,0.42643 0.48763,0.73954 0.67774,0.85742 0.31853,0.22147 0.57937,0.082 0.65625,-0.19727 0.18657,-0.67777 -0.24117,-1.89029 -0.68164,-2.42578 -0.14607,-0.17759 -0.58615,-1.07439 -1.31055,-0.77344 -0.13911,0.06 -0.31075,0.1587 -0.39453,0.4375 -0.14344,0.47734 -0.0165,0.93078 0.0215,1.39258 -0.14423,-0.45917 -0.40002,-1.05395 -0.24218,-1.61328 0.12916,-0.40519 0.44471,-0.5149 0.64648,-0.55273 0.0851,-0.01 0.16472,-0.0162 0.24219,-0.0176 z" />
              <path
                 id="path31620"
                 style="fill:#71bf44;fill-opacity:1;stroke:#ffffff;stroke-width:2;stroke-linecap:butt;stroke-linejoin:miter;stroke-miterlimit:4;stroke-dasharray:none;stroke-opacity:1"
                 d="m -285.97951,240.49396 c -1.73758,0.27213 -2.74864,1.03434 -3.19532,1.38831 0,0 -2.72069,1.78425 -1.59375,5.51293 1.09951,3.63791 9.70222,-0.50446 12.3418,-3.33224 2.63958,2.07328 11.24229,3.75666 12.3418,-0.19553 1.12694,-4.0508 -1.59375,-5.05737 -1.59375,-5.05737 -0.89336,-0.45258 -4.04458,-1.89411 -10.74805,3.23728 -3.35173,-1.60763 -5.81516,-1.82551 -7.55273,-1.55338 z" />
              <path
                 id="path33701"
                 style="fill:#ffffff;fill-opacity:1;stroke:none;stroke-width:1px;stroke-linecap:butt;stroke-linejoin:miter;stroke-opacity:1"
                 d="m -278.42678,242.74263 -2.28906,2.89063 c -2.42718,5.79434 -5.39032,10.83656 -8.39649,15.82031 1.14905,0.53249 2.29822,0.58806 3.44727,0.17774 3.08119,-5.45478 5.3308,-11.40935 7.23828,-17.56835 1.90748,6.159 4.15709,12.11357 7.23828,17.56835 1.14905,0.41032 2.29822,0.35475 3.44727,-0.17774 -3.00617,-4.98374 -5.96931,-10.02597 -8.39649,-15.82031 z" />
              <path
                 style="fill:#ffffff;fill-opacity:1;stroke:none;stroke-width:1px;stroke-linecap:butt;stroke-linejoin:miter;stroke-opacity:1"
                 d="m -289.93588,244.61475 7.30309,-3.0494 -3.66812,-0.7292 -3.74545,2.48592 z"
                 id="path36797" />
              <path
                 style="fill:#ffffff;fill-opacity:1;stroke:none;stroke-width:1px;stroke-linecap:butt;stroke-linejoin:miter;stroke-opacity:1"
                 d="m -274.85462,244.6258 8.09859,-2.72899 0.37565,2.06608 -2.67375,1.72357 -5.88887,-0.56348 z"
                 id="path36898" />
            </g>
          </g>
        </g>
      </g>
    </g>
  </g>
</svg>
